<svg version="1.1" id="Layer_1" xmlns="http://www.w3.org/2000/svg" xmlns:xlink="http://www.w3.org/1999/xlink" x="0px" y="0px"
	 width="100%" viewBox="0 0 80 80" enable-background="new 0 0 80 80" xml:space="preserve">
<path fill="#E9F0F6" opacity="1.000000" stroke="none" 
	d="
M81.000000,25.000000 
	C81.000000,34.687561 81.000000,44.375122 80.662674,54.588142 
	C78.692734,57.165337 77.014923,59.182926 75.434975,61.274445 
	C66.364418,73.281891 55.054314,80.470642 39.313755,77.956078 
	C31.577274,76.720169 23.929453,74.921318 18.403418,68.831184 
	C8.466369,57.879772 3.054124,45.941551 7.708779,30.423168 
	C12.069613,15.884371 20.872536,7.218495 35.432785,3.837457 
	C36.769413,3.527077 37.817780,1.975320 39.000000,1.000000 
	C43.356899,1.000000 47.713799,1.000000 52.614285,1.359208 
	C53.477036,2.075992 53.734867,2.648346 54.124378,2.759567 
	C62.687660,5.204758 70.166145,9.257217 75.335464,16.818438 
	C77.207489,19.556667 79.110901,22.273439 81.000000,25.000000 
M47.251045,6.998546 
	C42.792103,7.201553 37.992626,6.399731 33.931339,7.776104 
	C12.860314,14.917093 2.383706,37.554501 14.682805,58.176918 
	C24.317675,74.332100 41.544357,77.791946 56.951885,72.063194 
	C67.903625,67.991188 74.394218,59.042767 77.073441,47.239162 
	C81.450157,27.957027 67.941505,8.799612 47.251045,6.998546 
z"/>
<path fill="#EFF3F5" opacity="1.000000" stroke="none" 
	d="
M38.535347,1.000000 
	C37.817780,1.975320 36.769413,3.527077 35.432785,3.837457 
	C20.872536,7.218495 12.069613,15.884371 7.708779,30.423168 
	C3.054124,45.941551 8.466369,57.879772 18.403418,68.831184 
	C23.929453,74.921318 31.577274,76.720169 39.313755,77.956078 
	C55.054314,80.470642 66.364418,73.281891 75.434975,61.274445 
	C77.014923,59.182926 78.692734,57.165337 80.662674,55.056801 
	C81.000000,57.370556 81.000000,59.741116 80.655785,62.595421 
	C75.179207,67.579231 70.042435,72.074272 64.917038,76.582253 
	C63.262650,78.037361 61.638168,79.526459 60.000000,81.000000 
	C49.979103,81.000000 39.958210,81.000000 29.408989,80.657562 
	C28.313276,79.747292 27.848028,78.917511 27.163330,78.650520 
	C14.994578,73.905449 7.681953,64.868034 3.769688,52.668049 
	C3.328074,51.290924 1.945981,50.215385 1.000000,49.000000 
	C1.000000,43.977909 1.000000,38.955814 1.356607,33.390488 
	C2.113783,32.363682 2.725910,31.940325 2.883248,31.387526 
	C5.318900,22.829996 8.438759,14.780366 16.075974,9.227462 
	C19.326351,6.864162 22.041576,3.764839 25.000000,1.000000 
	C29.356899,1.000000 33.713799,1.000000 38.535347,1.000000 
z"/>
<path fill="#F4F4F6" opacity="1.000000" stroke="none" 
	d="
M1.000000,49.468658 
	C1.945981,50.215385 3.328074,51.290924 3.769688,52.668049 
	C7.681953,64.868034 14.994578,73.905449 27.163330,78.650520 
	C27.848028,78.917511 28.313276,79.747292 28.940331,80.657562 
	C19.735266,81.000000 10.470531,81.000000 1.000000,81.000000 
	C1.000000,70.646683 1.000000,60.292000 1.000000,49.468658 
z"/>
<path fill="#F4F4F6" opacity="1.000000" stroke="none" 
	d="
M24.531307,1.000000 
	C22.041576,3.764839 19.326351,6.864162 16.075974,9.227462 
	C8.438759,14.780366 5.318900,22.829996 2.883248,31.387526 
	C2.725910,31.940325 2.113783,32.363682 1.356607,32.923630 
	C1.000000,22.417395 1.000000,11.834788 1.000000,1.000000 
	C8.685706,1.000000 16.374161,1.000000 24.531307,1.000000 
z"/>
<path fill="#F4F4F6" opacity="1.000000" stroke="none" 
	d="
M81.000000,24.531309 
	C79.110901,22.273439 77.207489,19.556667 75.335464,16.818438 
	C70.166145,9.257217 62.687660,5.204758 54.124378,2.759567 
	C53.734867,2.648346 53.477036,2.075992 53.078934,1.359208 
	C62.254066,1.000000 71.508133,1.000000 81.000000,1.000000 
	C81.000000,8.685909 81.000000,16.374264 81.000000,24.531309 
z"/>
<path fill="#F4F4F6" opacity="1.000000" stroke="none" 
	d="
M60.468914,81.000000 
	C61.638168,79.526459 63.262650,78.037361 64.917038,76.582253 
	C70.042435,72.074272 75.179207,67.579231 80.655785,63.039581 
	C81.000000,68.931770 81.000000,74.863533 81.000000,81.000000 
	C74.313614,81.000000 67.625717,81.000000 60.468914,81.000000 
z"/>
<path fill="#DBEBF6" opacity="1.000000" stroke="none" 
	d="
M47.712303,6.999062 
	C67.941505,8.799612 81.450157,27.957027 77.073441,47.239162 
	C74.394218,59.042767 67.903625,67.991188 56.951885,72.063194 
	C41.544357,77.791946 24.317675,74.332100 14.682805,58.176918 
	C2.383706,37.554501 12.860314,14.917093 33.931339,7.776104 
	C37.992626,6.399731 42.792103,7.201553 47.712303,6.999062 
M72.911674,40.298409 
	C72.610847,39.199287 72.310020,38.100166 72.559174,36.437340 
	C72.586182,34.146114 73.392090,31.488558 72.514565,29.622747 
	C66.543098,16.926096 57.869652,9.426615 42.006985,10.191745 
	C36.721336,10.446696 30.569889,10.424788 26.747524,16.524614 
	C26.164854,17.016191 25.582184,17.507769 24.260773,18.010481 
	C19.343761,19.526018 17.783201,23.480566 16.994980,28.495806 
	C16.994980,28.495806 16.989517,28.990789 16.274776,29.140768 
	C15.545771,30.556660 14.367245,31.909819 14.159497,33.398453 
	C12.618861,44.438030 13.905251,54.500572 22.950781,62.608181 
	C30.600626,69.464813 44.281082,73.469910 51.899532,70.416260 
	C64.804657,65.243576 73.529991,57.092491 72.995583,41.493702 
	C72.987267,41.323978 72.978943,41.154255 72.911674,40.298409 
z"/>
<path fill="#CDE5F6" opacity="1.000000" stroke="none" 
	d="
M73.004250,42.003487 
	C73.529991,57.092491 64.804657,65.243576 51.899532,70.416260 
	C44.281082,73.469910 30.600626,69.464813 22.950781,62.608181 
	C13.905251,54.500572 12.618861,44.438030 14.159497,33.398453 
	C14.367245,31.909819 15.545771,30.556660 16.636576,29.500847 
	C16.753805,31.483820 16.553707,33.114868 16.257883,34.728367 
	C12.752024,53.850296 25.929752,66.517296 41.418251,67.996948 
	C43.217522,67.992371 44.601803,67.987000 46.405125,67.988449 
	C51.237049,67.189522 56.280296,67.905571 59.041473,62.629463 
	C60.407070,60.550865 61.709763,58.803368 63.226524,57.281609 
	C64.294235,56.339008 65.147881,55.170666 66.246490,53.993591 
	C66.491463,53.984859 66.981422,53.967773 67.244759,53.758263 
	C66.624176,51.598660 72.863457,50.307152 68.026505,47.667065 
	C68.034378,46.911442 68.037659,46.479912 68.378235,45.978653 
	C69.149338,44.944027 69.583138,43.979134 70.333549,42.982353 
	C71.434860,42.634804 72.219551,42.319145 73.004250,42.003487 
z"/>
<path fill="#BEE0F7" opacity="1.000000" stroke="none" 
	d="
M41.003250,67.996155 
	C25.929752,66.517296 12.752024,53.850296 16.257883,34.728367 
	C16.553707,33.114868 16.753805,31.483820 16.993946,29.425858 
	C16.989517,28.990789 16.994980,28.495806 17.298714,28.096203 
	C20.068136,24.464180 22.533825,21.231764 24.999516,17.999348 
	C25.582184,17.507769 26.164854,17.016191 27.252705,16.216230 
	C31.536966,14.764820 35.295315,13.546850 39.099453,12.494407 
	C46.954464,10.321258 58.680450,14.546844 62.568565,21.019794 
	C60.782005,20.998589 59.407112,20.976990 58.013439,20.587685 
	C54.925209,15.228121 44.929962,12.201324 38.698441,14.784130 
	C35.607361,16.065302 32.878811,18.221163 29.870102,20.194752 
	C29.552990,20.674448 29.296625,20.866913 28.621830,20.993862 
	C26.838461,22.334015 25.418123,23.665895 23.761927,25.172810 
	C23.346388,25.894859 23.166708,26.441875 22.653854,27.046808 
	C21.546110,28.402140 20.771534,29.699554 19.992996,31.370010 
	C19.983936,32.489162 19.978838,33.235271 19.587868,34.089123 
	C19.181026,39.420753 18.795570,44.684601 19.361202,49.844177 
	C19.530893,51.392063 22.352594,52.649220 23.970226,54.419441 
	C24.365280,57.739342 24.436455,61.053326 29.250387,58.994694 
	C29.667459,58.979084 29.834126,58.968906 30.158989,59.208340 
	C30.857199,59.660511 31.397213,59.863068 31.945465,60.390312 
	C31.965565,61.147884 31.977428,61.580776 32.054409,62.353561 
	C34.413059,63.466103 36.706585,64.238747 39.331703,65.011108 
	C40.105263,65.011452 40.547237,65.012085 40.994011,65.385643 
	C41.000290,66.504433 41.001770,67.250298 41.003250,67.996155 
z"/>
<path fill="#CDE5F6" opacity="1.000000" stroke="none" 
	d="
M62.980232,21.019403 
	C58.680450,14.546844 46.954464,10.321258 39.099453,12.494407 
	C35.295315,13.546850 31.536966,14.764820 27.378952,15.953932 
	C30.569889,10.424788 36.721336,10.446696 42.006985,10.191745 
	C57.869652,9.426615 66.543098,16.926096 72.514565,29.622747 
	C73.392090,31.488558 72.586182,34.146114 72.015579,36.477291 
	C70.646164,34.346535 69.820343,32.175827 68.993958,29.667727 
	C68.659737,28.553337 68.326065,27.776340 67.966125,26.705120 
	C67.624664,25.942404 67.309486,25.473909 66.859543,24.696882 
	C65.476814,23.265013 64.228844,22.141676 62.986137,21.011929 
	C62.991402,21.005520 62.980232,21.019403 62.980232,21.019403 
z"/>
<path fill="#AFDAF8" opacity="1.000000" stroke="none" 
	d="
M68.994522,30.005119 
	C69.820343,32.175827 70.646164,34.346535 71.740585,36.759140 
	C72.310020,38.100166 72.610847,39.199287 72.592819,40.652969 
	C71.521622,41.676437 70.769287,42.345341 70.016937,43.014240 
	C69.583138,43.979134 69.149338,44.944027 68.363068,45.556099 
	C67.672417,40.136921 67.334244,35.070560 67.329224,30.002750 
	C68.106438,30.002571 68.550476,30.003843 68.994522,30.005119 
z"/>
<path fill="#CDE5F6" opacity="1.000000" stroke="none" 
	d="
M24.630144,18.004913 
	C22.533825,21.231764 20.068136,24.464180 17.301800,27.848713 
	C17.783201,23.480566 19.343761,19.526018 24.630144,18.004913 
z"/>
<path fill="#BEE0F7" opacity="1.000000" stroke="none" 
	d="
M70.333557,42.982353 
	C70.769287,42.345341 71.521622,41.676437 72.622284,40.996033 
	C72.978943,41.154255 72.987267,41.323978 72.999916,41.748596 
	C72.219551,42.319145 71.434860,42.634804 70.333557,42.982353 
z"/>
<path fill="#A1D4F8" opacity="1.000000" stroke="none" 
	d="
M66.996063,30.004204 
	C67.334244,35.070560 67.672417,40.136921 68.025772,45.625832 
	C68.037659,46.479912 68.034378,46.911442 67.747078,47.933331 
	C67.302521,50.338383 67.141975,52.153080 66.981430,53.967773 
	C66.981422,53.967773 66.491463,53.984859 65.924911,54.037025 
	C64.576393,55.078083 63.794426,56.066971 63.012459,57.055862 
	C61.709763,58.803368 60.407070,60.550865 58.724937,62.493969 
	C57.232174,62.471184 56.118851,62.252800 55.002899,62.018692 
	C55.000275,62.002968 54.994137,61.971779 55.033157,61.633202 
	C55.719189,59.869122 56.366196,58.443619 57.006680,57.009712 
	C57.000153,57.001308 57.013718,57.013279 57.376995,57.005882 
	C59.155018,55.661747 60.569763,54.325016 61.991920,52.994064 
	C61.999329,52.999847 61.988201,52.987980 62.298218,52.827286 
	C63.407913,49.777679 64.207588,46.888771 65.008240,43.626308 
	C65.012184,42.505653 65.015152,41.758553 65.363907,40.939117 
	C67.734039,35.686256 62.828159,25.629101 56.998146,23.002056 
	C57.000000,23.000000 56.996784,23.003756 56.889412,22.744280 
	C56.528889,21.984789 56.275745,21.484774 56.357391,20.984644 
	C57.138863,20.974815 57.585541,20.965103 58.032215,20.955391 
	C59.407112,20.976990 60.782005,20.998589 62.568565,21.019794 
	C62.980232,21.019403 62.991402,21.005520 62.985863,21.374298 
	C63.319687,22.829494 63.659050,23.915916 64.120728,25.283737 
	C64.826515,26.377079 65.409981,27.189024 66.022003,28.295689 
	C66.365730,29.061672 66.680901,29.532938 66.996063,30.004204 
z"/>
<path fill="#AFDAF8" opacity="1.000000" stroke="none" 
	d="
M41.418247,67.996948 
	C41.001770,67.250298 41.000290,66.504433 41.309284,65.334839 
	C42.088089,64.287209 42.556419,63.663330 43.461433,63.032249 
	C47.596786,62.673962 51.295464,62.322868 54.994137,61.971779 
	C54.994137,61.971779 55.000275,62.002968 54.935661,62.367596 
	C53.270267,63.644661 51.658970,64.539253 50.071899,65.474945 
	C48.695702,66.286316 47.346958,67.144264 45.986080,67.981628 
	C44.601803,67.987000 43.217522,67.992371 41.418247,67.996948 
z"/>
<path fill="#BEE0F7" opacity="1.000000" stroke="none" 
	d="
M46.405125,67.988441 
	C47.346958,67.144264 48.695702,66.286316 50.071899,65.474945 
	C51.658970,64.539253 53.270267,63.644661 54.938286,62.383316 
	C56.118851,62.252800 57.232174,62.471184 58.662033,62.825066 
	C56.280296,67.905571 51.237049,67.189522 46.405125,67.988441 
z"/>
<path fill="#AFDAF8" opacity="1.000000" stroke="none" 
	d="
M67.244766,53.758263 
	C67.141975,52.153080 67.302521,50.338383 67.742493,48.257423 
	C72.863457,50.307152 66.624176,51.598660 67.244766,53.758263 
z"/>
<path fill="#BEE0F7" opacity="1.000000" stroke="none" 
	d="
M63.226521,57.281609 
	C63.794426,56.066971 64.576393,55.078083 65.679947,54.045757 
	C65.147881,55.170666 64.294235,56.339008 63.226521,57.281609 
z"/>
<path fill="#A1D4F8" opacity="1.000000" stroke="none" 
	d="
M28.984859,20.985588 
	C29.296625,20.866913 29.552990,20.674448 30.230007,20.158428 
	C33.137321,19.268297 35.568584,18.627935 37.999973,18.321568 
	C37.996937,19.100409 37.993774,19.545254 37.634865,20.031868 
	C31.418926,22.525187 25.861385,25.648075 23.818624,32.020443 
	C22.505661,36.116226 22.566187,40.652302 22.004784,45.328514 
	C21.991056,46.116138 21.983624,46.566280 21.588778,46.911793 
	C20.792156,42.531902 20.382948,38.256641 19.973740,33.981377 
	C19.978838,33.235271 19.983936,32.489162 20.328182,31.316219 
	C21.440561,29.589220 22.213795,28.289055 22.987026,26.988890 
	C23.166708,26.441875 23.346388,25.894859 24.095982,25.137383 
	C26.105549,23.613144 27.545206,22.299366 28.984859,20.985588 
z"/>
<path fill="#AFDAF8" opacity="1.000000" stroke="none" 
	d="
M37.999847,17.987576 
	C35.568584,18.627935 33.137321,19.268297 30.346157,19.944983 
	C32.878811,18.221163 35.607361,16.065302 38.698441,14.784130 
	C44.929962,12.201324 54.925209,15.228121 58.013439,20.587685 
	C57.585541,20.965103 57.138863,20.974815 56.349846,20.985401 
	C56.007507,20.986275 56.014347,20.973248 55.976460,20.690699 
	C55.294975,20.260653 54.651375,20.113155 53.712822,19.841490 
	C52.609634,19.482414 51.801407,19.247507 50.661789,19.005817 
	C49.888500,18.992332 49.446602,18.985632 48.831810,18.741961 
	C48.111023,18.328192 47.563141,18.151394 46.922218,17.607264 
	C44.331200,15.473875 41.947266,14.764724 39.655487,17.980808 
	C38.882858,17.984749 38.441353,17.986162 37.999847,17.987576 
z"/>
<path fill="#AFDAF8" opacity="1.000000" stroke="none" 
	d="
M19.587868,34.089123 
	C20.382948,38.256641 20.792156,42.531902 21.856386,47.155792 
	C23.007452,49.669765 23.503496,51.835114 23.990231,54.009590 
	C23.980921,54.018719 23.959345,54.039566 23.959347,54.039566 
	C22.352594,52.649220 19.530893,51.392063 19.361202,49.844177 
	C18.795570,44.684601 19.181026,39.420753 19.587868,34.089123 
z"/>
<path fill="#A1D4F8" opacity="1.000000" stroke="none" 
	d="
M43.024754,63.039448 
	C42.556419,63.663330 42.088089,64.287209 41.304482,64.961899 
	C40.547237,65.012085 40.105263,65.011452 39.120663,64.736702 
	C36.381786,63.646282 34.185535,62.829975 31.989288,62.013664 
	C31.977428,61.580776 31.965565,61.147884 32.216152,60.362381 
	C32.659142,59.998257 32.839684,59.986740 33.359398,59.987549 
	C35.789333,60.345444 37.880089,60.691006 40.039562,61.375229 
	C41.080437,62.155739 42.052593,62.597591 43.024754,63.039448 
z"/>
<path fill="#AFDAF8" opacity="1.000000" stroke="none" 
	d="
M28.999979,59.000122 
	C24.436455,61.053326 24.365280,57.739342 23.970226,54.419441 
	C23.959345,54.039566 23.980921,54.018719 24.314760,54.042076 
	C25.765013,54.710430 26.881424,55.355427 28.000603,56.331314 
	C28.031769,57.101936 28.060169,57.541668 28.176535,58.193748 
	C28.446939,58.671906 28.695248,58.841053 29.011322,58.935654 
	C29.013218,58.957760 28.999979,59.000122 28.999979,59.000122 
z"/>
<path fill="#AFDAF8" opacity="1.000000" stroke="none" 
	d="
M32.054409,62.353561 
	C34.185535,62.829975 36.381786,63.646282 38.789074,64.736984 
	C36.706585,64.238747 34.413059,63.466103 32.054409,62.353561 
z"/>
<path fill="#7EC7FA" opacity="1.000000" stroke="none" 
	d="
M28.088568,57.981403 
	C28.060169,57.541668 28.031769,57.101936 28.241337,56.157360 
	C28.659666,55.098816 28.840027,54.545113 29.355604,54.033028 
	C30.463112,55.043846 31.235403,56.013050 31.692007,57.031586 
	C30.917810,57.706848 30.459303,58.332787 30.000793,58.958725 
	C29.834126,58.968906 29.667459,58.979084 29.250387,58.994694 
	C28.999979,59.000122 29.013218,58.957760 28.903763,58.739605 
	C28.608572,58.276749 28.373325,58.096733 28.088568,57.981403 
z"/>
<path fill="#AFDAF8" opacity="1.000000" stroke="none" 
	d="
M28.621830,20.993862 
	C27.545206,22.299366 26.105549,23.613144 24.331839,24.962347 
	C25.418123,23.665895 26.838461,22.334015 28.621830,20.993862 
z"/>
<path fill="#8FCDF9" opacity="1.000000" stroke="none" 
	d="
M30.158989,59.208340 
	C30.459303,58.332787 30.917810,57.706848 31.941978,57.036884 
	C32.674370,56.993855 32.841103,56.994846 33.007114,57.368576 
	C33.011005,58.485947 33.015614,59.230583 33.020226,59.975220 
	C32.839684,59.986740 32.659142,59.998257 32.207916,60.037697 
	C31.397213,59.863068 30.857199,59.660511 30.158989,59.208340 
z"/>
<path fill="#AFDAF8" opacity="1.000000" stroke="none" 
	d="
M22.653854,27.046808 
	C22.213795,28.289055 21.440561,29.589220 20.332146,30.943176 
	C20.771534,29.699554 21.546110,28.402140 22.653854,27.046808 
z"/>
<path fill="#BEE0F7" opacity="1.000000" stroke="none" 
	d="
M63.998413,25.002338 
	C63.659050,23.915916 63.319687,22.829494 62.980598,21.380707 
	C64.228844,22.141676 65.476814,23.265013 66.485199,24.696472 
	C65.496544,25.003843 64.747475,25.003092 63.998413,25.002338 
z"/>
<path fill="#AFDAF8" opacity="1.000000" stroke="none" 
	d="
M64.120728,25.283737 
	C64.747475,25.003092 65.496544,25.003843 66.619949,25.005005 
	C67.309486,25.473909 67.624664,25.942404 67.709229,26.815941 
	C66.983551,27.480980 66.488495,27.740974 65.993446,28.000969 
	C65.409981,27.189024 64.826515,26.377079 64.120728,25.283737 
z"/>
<path fill="#BEE0F7" opacity="1.000000" stroke="none" 
	d="
M66.022003,28.295689 
	C66.488495,27.740974 66.983551,27.480980 67.735504,27.110165 
	C68.326065,27.776340 68.659737,28.553337 68.993958,29.667725 
	C68.550476,30.003843 68.106438,30.002571 67.329224,30.002750 
	C66.680901,29.532938 66.365730,29.061672 66.022003,28.295689 
z"/>
<path fill="#7EC7FA" opacity="1.000000" stroke="none" 
	d="
M49.004707,18.978931 
	C49.446602,18.985632 49.888500,18.992332 50.722588,19.344273 
	C52.070614,20.132290 53.026440,20.575073 54.047676,21.356155 
	C55.074318,22.130890 56.035549,22.567322 56.996784,23.003756 
	C56.996784,23.003756 57.000000,23.000000 57.038879,23.349245 
	C61.533478,28.639833 63.983311,34.501152 65.018120,41.011452 
	C65.015152,41.758553 65.012184,42.505653 64.741196,43.859352 
	C63.644852,47.306622 62.816525,50.147301 61.988197,52.987980 
	C61.988201,52.987980 61.999329,52.999847 61.659622,53.032928 
	C59.884518,54.381763 58.449116,55.697521 57.013718,57.013279 
	C57.013718,57.013279 57.000153,57.001308 56.668133,57.002266 
	C55.884987,56.996738 55.433861,56.990250 54.990932,56.618103 
	C55.913345,54.746765 56.710941,53.153931 57.760624,51.749508 
	C64.793854,42.339443 63.419907,30.304916 51.959290,24.673786 
	C51.270355,23.908365 50.632397,23.458487 49.596802,23.005396 
	C47.135563,22.672970 45.071957,22.343754 42.609100,22.010721 
	C36.497822,22.508356 31.930876,24.902250 28.683800,30.164825 
	C27.246208,32.939850 25.699966,35.455296 25.092667,38.180016 
	C23.869732,43.666836 26.282131,48.426037 28.644257,52.955002 
	C27.109009,51.476772 25.912176,50.056763 24.756922,48.603703 
	C23.815823,47.420002 22.924482,46.196743 22.011076,44.991024 
	C22.566187,40.652302 22.505661,36.116226 23.818624,32.020443 
	C25.861385,25.648075 31.418926,22.525187 38.088760,20.035927 
	C42.267174,19.658457 45.635941,19.318693 49.004707,18.978931 
z"/>
<path fill="#8FCDF9" opacity="1.000000" stroke="none" 
	d="
M65.363907,40.939117 
	C63.983311,34.501152 61.533478,28.639833 57.037022,23.351303 
	C62.828159,25.629101 67.734039,35.686256 65.363907,40.939117 
z"/>
<path fill="#8FCDF9" opacity="1.000000" stroke="none" 
	d="
M54.982735,56.983765 
	C55.433861,56.990250 55.884987,56.996738 56.674660,57.010674 
	C56.366196,58.443619 55.719189,59.869122 55.033157,61.633202 
	C51.295464,62.322868 47.596786,62.673962 43.461433,63.032249 
	C42.052593,62.597591 41.080437,62.155739 40.498108,61.361946 
	C44.181873,59.953251 48.331200,63.203754 51.299889,58.973473 
	C52.067467,58.611862 52.535656,58.278507 53.295959,57.926746 
	C54.052959,57.600151 54.517849,57.291958 54.982735,56.983765 
z"/>
<path fill="#8FCDF9" opacity="1.000000" stroke="none" 
	d="
M62.298218,52.827286 
	C62.816525,50.147301 63.644852,47.306622 64.740219,44.232903 
	C64.207588,46.888771 63.407913,49.777679 62.298218,52.827286 
z"/>
<path fill="#8FCDF9" opacity="1.000000" stroke="none" 
	d="
M57.376995,57.005882 
	C58.449116,55.697521 59.884518,54.381763 61.652214,53.027145 
	C60.569763,54.325016 59.155018,55.661747 57.376995,57.005882 
z"/>
<path fill="#8FCDF9" opacity="1.000000" stroke="none" 
	d="
M56.889412,22.744280 
	C56.035549,22.567322 55.074318,22.130890 54.054569,21.349211 
	C53.996056,21.003965 54.005119,20.994871 54.339909,20.994520 
	C55.121246,20.987196 55.567799,20.980221 56.014347,20.973248 
	C56.014347,20.973248 56.007507,20.986275 56.015053,20.985516 
	C56.275745,21.484774 56.528889,21.984789 56.889412,22.744280 
z"/>
<path fill="#8FCDF9" opacity="1.000000" stroke="none" 
	d="
M22.004784,45.328514 
	C22.924482,46.196743 23.815823,47.420002 24.756922,48.603703 
	C25.912176,50.056763 27.109009,51.476772 28.647648,53.203156 
	C29.007427,53.495247 29.020390,53.991413 29.020390,53.991413 
	C28.840027,54.545113 28.659666,55.098816 28.238571,55.826469 
	C26.881424,55.355427 25.765013,54.710430 24.324070,54.032948 
	C23.503496,51.835114 23.007452,49.669765 22.243799,47.260422 
	C21.983624,46.566280 21.991056,46.116138 22.004784,45.328514 
z"/>
<path fill="#8FCDF9" opacity="1.000000" stroke="none" 
	d="
M48.831810,18.741961 
	C45.635941,19.318693 42.267174,19.658457 38.444511,19.994160 
	C37.993774,19.545254 37.996937,19.100409 37.999973,18.321568 
	C38.441353,17.986162 38.882858,17.984749 40.094933,17.989267 
	C42.915417,17.988333 44.965336,17.981464 47.015255,17.974598 
	C47.563141,18.151394 48.111023,18.328192 48.831810,18.741961 
z"/>
<path fill="#A1D4F8" opacity="1.000000" stroke="none" 
	d="
M46.922218,17.607265 
	C44.965336,17.981464 42.915417,17.988333 40.426056,17.986740 
	C41.947266,14.764724 44.331200,15.473875 46.922218,17.607265 
z"/>
<path fill="#8FCDF9" opacity="1.000000" stroke="none" 
	d="
M53.989162,21.010910 
	C53.026440,20.575073 52.070614,20.132290 51.053982,19.351053 
	C51.801407,19.247507 52.609634,19.482414 53.710987,20.098984 
	C54.004448,20.652052 54.004784,20.823462 54.005119,20.994871 
	C54.005119,20.994871 53.996056,21.003965 53.989162,21.010910 
z"/>
<path fill="#A1D4F8" opacity="1.000000" stroke="none" 
	d="
M54.339909,20.994520 
	C54.004784,20.823462 54.004448,20.652052 54.005943,20.223148 
	C54.651375,20.113155 55.294975,20.260653 55.976460,20.690697 
	C55.567799,20.980221 55.121246,20.987196 54.339909,20.994520 
z"/>
<path fill="#7EC7FA" opacity="1.000000" stroke="none" 
	d="
M51.000500,59.001724 
	C48.331200,63.203754 44.181873,59.953251 40.429398,61.023293 
	C37.880089,60.691006 35.789333,60.345444 33.359398,59.987549 
	C33.015614,59.230583 33.011005,58.485947 33.388634,57.422295 
	C37.701580,59.380272 41.761024,59.912758 46.399284,58.003601 
	C47.861591,57.996128 48.925098,57.990845 50.204521,58.103447 
	C50.691341,58.423817 50.884697,58.683949 51.000500,59.001724 
z"/>
<path fill="#8FCDF9" opacity="1.000000" stroke="none" 
	d="
M28.176535,58.193748 
	C28.373325,58.096733 28.608572,58.276749 28.901867,58.717499 
	C28.695248,58.841053 28.446939,58.671906 28.176535,58.193748 
z"/>
<path fill="#75C4FB" opacity="1.000000" stroke="none" 
	d="
M46.000492,58.005795 
	C41.761024,59.912758 37.701580,59.380272 33.389359,57.049561 
	C32.841103,56.994846 32.674370,56.993855 32.257668,56.987556 
	C31.235403,56.013050 30.463112,55.043846 29.355606,54.033028 
	C29.020390,53.991413 29.007427,53.495247 29.004036,53.247089 
	C26.282131,48.426037 23.869732,43.666836 25.092667,38.180016 
	C25.699966,35.455296 27.246208,32.939850 28.683304,30.538128 
	C28.825956,32.272041 28.652981,33.797554 28.449179,35.594933 
	C29.814049,34.980236 30.904675,34.489052 31.949226,34.376045 
	C30.735683,38.651485 27.261932,42.769039 32.988594,46.004120 
	C32.998993,45.999477 32.990128,46.018661 32.998589,46.383156 
	C33.691334,50.006271 35.323299,51.939827 39.244831,51.022560 
	C39.668209,51.018589 39.837574,51.019314 40.298447,51.149189 
	C41.393147,51.526833 42.196339,51.775326 43.157997,52.237930 
	C43.887291,52.281139 44.458130,52.110233 45.354424,51.954922 
	C46.113697,51.973751 46.547512,51.976990 46.950539,52.316246 
	C46.613335,54.436771 46.306915,56.221283 46.000492,58.005795 
z"/>
<path fill="#68BFFC" opacity="1.000000" stroke="none" 
	d="
M46.399284,58.003601 
	C46.306915,56.221283 46.613335,54.436771 46.942467,52.310570 
	C46.965183,51.968884 46.958168,51.943375 47.320789,51.924774 
	C48.719543,51.441769 49.876568,51.142075 50.771465,50.485237 
	C55.319397,47.147182 55.985111,38.919140 52.010574,35.740562 
	C52.007385,35.492630 52.004234,34.995491 51.973854,34.670235 
	C51.297195,33.227528 50.650921,32.110085 49.955204,30.676434 
	C49.267448,29.909891 48.629135,29.459553 47.616985,29.007008 
	C46.495487,29.003048 45.747818,29.001295 44.742405,28.730659 
	C42.991776,28.305685 41.498894,28.149591 40.010910,27.629818 
	C41.013321,25.515604 42.010838,23.765072 43.008354,22.014540 
	C45.071957,22.343754 47.135563,22.672970 49.646713,23.321415 
	C50.732929,24.090206 51.371597,24.539766 52.010265,24.989328 
	C63.419907,30.304916 64.793854,42.339443 57.760624,51.749508 
	C56.710941,53.153931 55.913345,54.746765 54.990932,56.618103 
	C54.517849,57.291958 54.052959,57.600151 53.237717,57.604637 
	C51.921108,57.529140 50.954861,57.757351 49.988609,57.985565 
	C48.925098,57.990845 47.861591,57.996128 46.399284,58.003601 
z"/>
<path fill="#71C2FC" opacity="1.000000" stroke="none" 
	d="
M42.609100,22.010721 
	C42.010838,23.765072 41.013321,25.515604 39.697273,27.769627 
	C38.250786,29.176487 37.122833,30.079853 35.713676,31.125549 
	C34.286743,32.177876 33.141022,33.087872 31.995296,33.997868 
	C30.904675,34.489052 29.814049,34.980236 28.449179,35.594933 
	C28.652981,33.797554 28.825956,32.272041 28.999428,30.373226 
	C31.930876,24.902250 36.497822,22.508356 42.609100,22.010721 
z"/>
<path fill="#71C2FC" opacity="1.000000" stroke="none" 
	d="
M51.959290,24.673786 
	C51.371597,24.539766 50.732929,24.090206 50.044350,23.324627 
	C50.632397,23.458487 51.270355,23.908365 51.959290,24.673786 
z"/>
<path fill="#75C4FB" opacity="1.000000" stroke="none" 
	d="
M50.204521,58.103451 
	C50.954861,57.757351 51.921108,57.529140 52.945602,57.623039 
	C52.535656,58.278507 52.067467,58.611862 51.299889,58.973473 
	C50.884697,58.683949 50.691341,58.423817 50.204521,58.103451 
z"/>
<path fill="#A1D4F8" opacity="1.000000" stroke="none" 
	d="
M40.006943,51.020039 
	C39.837574,51.019314 39.668209,51.018589 39.059994,50.754501 
	C36.744141,49.000309 34.867134,47.509487 32.990128,46.018661 
	C32.990128,46.018661 32.998993,45.999477 32.991413,45.563698 
	C33.629288,42.061787 34.274742,38.995655 34.946472,36.375305 
	C35.025311,45.797039 35.755234,46.950909 42.347763,47.978413 
	C43.105831,47.980968 43.539124,47.971287 44.321411,47.942337 
	C45.772388,46.945431 46.874374,45.967800 47.987572,44.995033 
	C47.998779,44.999893 47.989574,44.979237 48.317162,44.807671 
	C49.108746,42.750839 49.572739,40.865578 50.364475,38.988846 
	C51.129265,38.996647 51.566311,38.995922 52.007164,39.405125 
	C52.080444,44.588459 49.678055,48.332054 46.958168,51.943375 
	C46.958168,51.943375 46.965183,51.968884 46.973255,51.974556 
	C46.547512,51.976990 46.113697,51.973751 45.299545,51.652611 
	C44.294426,50.912285 43.669651,50.489861 42.703644,50.049568 
	C41.577255,50.361141 40.792099,50.690590 40.006943,51.020039 
z"/>
<path fill="#7EC7FA" opacity="1.000000" stroke="none" 
	d="
M34.920197,35.929520 
	C34.274742,38.995655 33.629288,42.061787 32.981010,45.568344 
	C27.261932,42.769039 30.735683,38.651485 31.949226,34.376045 
	C33.141022,33.087872 34.286743,32.177876 36.049599,31.132671 
	C37.444019,31.326086 38.221313,31.654709 38.871040,32.258259 
	C38.138920,33.336315 37.534363,34.139442 36.636696,34.971268 
	C35.869122,35.309818 35.394657,35.619667 34.920197,35.929520 
z"/>
<path fill="#7EC7FA" opacity="1.000000" stroke="none" 
	d="
M32.998589,46.383156 
	C34.867134,47.509487 36.744141,49.000309 38.805984,50.759193 
	C35.323299,51.939827 33.691334,50.006271 32.998589,46.383156 
z"/>
<path fill="#7EC7FA" opacity="1.000000" stroke="none" 
	d="
M43.044872,50.067440 
	C43.669651,50.489861 44.294426,50.912285 44.974083,51.637016 
	C44.458130,52.110233 43.887291,52.281139 43.163826,51.911072 
	C43.022419,50.935879 43.033646,50.501659 43.044872,50.067440 
z"/>
<path fill="#8FCDF9" opacity="1.000000" stroke="none" 
	d="
M42.703644,50.049568 
	C43.033646,50.501659 43.022419,50.935879 43.005363,51.696957 
	C42.196339,51.775326 41.393147,51.526833 40.298447,51.149189 
	C40.792099,50.690590 41.577255,50.361141 42.703644,50.049568 
z"/>
<path fill="#7EC7FA" opacity="1.000000" stroke="none" 
	d="
M47.320789,51.924774 
	C49.678055,48.332054 52.080444,44.588459 52.006985,39.030338 
	C52.006588,37.493248 52.010174,36.740871 52.013763,35.988499 
	C55.985111,38.919140 55.319397,47.147182 50.771465,50.485237 
	C49.876568,51.142075 48.719543,51.441769 47.320789,51.924774 
z"/>
<path fill="#75C4FB" opacity="1.000000" stroke="none" 
	d="
M38.998604,31.983330 
	C38.221313,31.654709 37.444019,31.326086 36.330803,30.990343 
	C37.122833,30.079853 38.250786,29.176487 39.692375,28.133308 
	C41.498894,28.149591 42.991776,28.305685 44.742966,29.098288 
	C44.998016,30.470018 44.994755,31.205238 44.564316,31.964218 
	C42.424294,31.986429 40.711449,31.984880 38.998604,31.983330 
z"/>
<path fill="#7EC7FA" opacity="1.000000" stroke="none" 
	d="
M44.991493,31.940460 
	C44.994755,31.205238 44.998016,30.470018 45.000717,29.367170 
	C45.747818,29.001295 46.495487,29.003048 47.667652,29.322535 
	C48.729649,30.091057 49.367149,30.541847 50.004646,30.992638 
	C50.650921,32.110085 51.297195,33.227528 51.606319,34.672028 
	C50.536831,34.989941 49.804497,34.980797 48.887894,34.732895 
	C48.136902,34.325172 47.570179,34.156208 46.879410,33.720798 
	C46.167400,32.949718 45.579445,32.445091 44.991493,31.940460 
z"/>
<path fill="#8FCDF9" opacity="1.000000" stroke="none" 
	d="
M49.072159,34.971649 
	C49.804497,34.980797 50.536831,34.989941 51.636703,34.997288 
	C52.004234,34.995491 52.007385,35.492630 52.010574,35.740562 
	C52.010174,36.740871 52.006588,37.493248 52.003181,38.620407 
	C51.566311,38.995922 51.129265,38.996647 50.351379,38.640808 
	C49.697746,37.180042 49.384953,36.075844 49.072159,34.971649 
z"/>
<path fill="#71C2FC" opacity="1.000000" stroke="none" 
	d="
M49.955208,30.676434 
	C49.367149,30.541847 48.729649,30.091057 48.041485,29.324741 
	C48.629135,29.459553 49.267448,29.909891 49.955208,30.676434 
z"/>
<path fill="#DBEBF6" opacity="1.000000" stroke="none" 
	d="
M43.972416,47.961609 
	C43.539124,47.971287 43.105831,47.980968 42.275909,47.632431 
	C35.985058,44.645367 36.568996,39.985508 38.489937,35.032959 
	C41.615322,35.040810 44.296246,35.061527 47.017403,35.421150 
	C47.352119,36.847118 47.646606,37.934185 47.576141,38.965141 
	C46.215096,38.362862 45.209148,37.354294 44.225143,37.375263 
	C42.614731,37.409580 40.252377,37.643688 39.626396,38.664120 
	C38.966507,39.739830 39.452946,42.335163 40.411095,43.328354 
	C41.175678,44.120895 43.431019,43.693581 44.967033,43.447784 
	C46.011864,43.280590 46.957211,42.491692 47.961376,42.355637 
	C47.980331,43.480061 47.984955,44.229649 47.989574,44.979237 
	C47.989574,44.979237 47.998779,44.999893 47.645496,45.031116 
	C46.185612,46.028763 45.079014,46.995186 43.972416,47.961609 
z"/>
<path fill="#BEE0F7" opacity="1.000000" stroke="none" 
	d="
M38.045479,35.045826 
	C36.568996,39.985508 35.985058,44.645367 41.951134,47.620193 
	C35.755234,46.950909 35.025311,45.797039 34.946472,36.375305 
	C35.394657,35.619667 35.869122,35.309818 36.915852,34.998310 
	C37.673901,35.013039 37.859688,35.029430 38.045479,35.045826 
z"/>
<path fill="#BEE0F7" opacity="1.000000" stroke="none" 
	d="
M48.317162,44.807671 
	C47.984955,44.229649 47.980331,43.480061 47.974808,41.985893 
	C47.962975,40.501297 47.952034,39.761272 47.941093,39.021252 
	C47.646606,37.934185 47.352119,36.847118 47.026939,35.146988 
	C46.998653,34.351696 47.001057,34.169468 47.003460,33.987244 
	C47.570179,34.156208 48.136902,34.325172 48.887894,34.732895 
	C49.384953,36.075844 49.697746,37.180042 50.023636,38.632275 
	C49.572739,40.865578 49.108746,42.750839 48.317162,44.807671 
z"/>
<path fill="#BEE0F7" opacity="1.000000" stroke="none" 
	d="
M44.321411,47.942337 
	C45.079014,46.995186 46.185612,46.028763 47.634285,45.026257 
	C46.874374,45.967800 45.772388,46.945431 44.321411,47.942337 
z"/>
<path fill="#AFDAF8" opacity="1.000000" stroke="none" 
	d="
M46.879410,33.720795 
	C47.001057,34.169468 46.998653,34.351696 46.986710,34.808083 
	C44.296246,35.061527 41.615322,35.040810 38.489937,35.032959 
	C37.859688,35.029430 37.673901,35.013039 37.208961,34.969612 
	C37.534363,34.139442 38.138920,33.336315 38.871040,32.258259 
	C40.711449,31.984880 42.424294,31.986429 44.564316,31.964218 
	C45.579445,32.445091 46.167400,32.949718 46.879410,33.720795 
z"/>
<path fill="#E9F0F6" opacity="1.000000" stroke="none" 
	d="
M47.576141,38.965141 
	C47.952034,39.761272 47.962975,40.501297 47.960480,41.611061 
	C46.957211,42.491692 46.011864,43.280590 44.967033,43.447784 
	C43.431019,43.693581 41.175678,44.120895 40.411095,43.328354 
	C39.452946,42.335163 38.966507,39.739830 39.626396,38.664120 
	C40.252377,37.643688 42.614731,37.409580 44.225143,37.375263 
	C45.209148,37.354294 46.215096,38.362862 47.576141,38.965141 
z"/>
</svg>